<svg xmlns="http://www.w3.org/2000/svg" width="30.63" height="50.473" viewBox="0 0 30.63 50.473">
  <g id="Screenshot-2021-10-09-at-1.11.52-AM" transform="translate(-314 982.05)">
    <path id="Path_24711" data-name="Path 24711" d="M328.854-981.945a2.336,2.336,0,0,0-.421.421c-.14.173-.286.351-.318.394s-.124.167-.2.27-.162.227-.2.27c-.248.3-2.19,3.215-2.422,3.641-.032.059-.162.275-.291.48s-.27.453-.329.55-.151.27-.21.372-.162.28-.221.388-.178.313-.254.448-.173.313-.227.4-.232.426-.4.755-.334.62-.361.658c-.113.146.092.1.744-.151.383-.151.755-.3.831-.329s.189-.081.259-.1.173-.07.243-.1a2.063,2.063,0,0,1,.663-.2c.032.027-.005.086-.944,1.532a11.215,11.215,0,0,0-.6.982,1.866,1.866,0,0,0,.286.394c.156.189.437.534.631.771s.361.442.378.458a5.257,5.257,0,0,1,.539.707c0,.065.005.065-.361-.038-.394-.108-.9-.243-1.688-.448-.34-.086-.669-.178-.734-.194-.092-.027-.156.032-.4.415-.162.248-.464.712-.674,1.041s-.442.7-.512.82a.689.689,0,0,1-.162.232,18.71,18.71,0,0,1-.162-1.9c0-.41-.065-.3-.572,1.009-.167.415-.318.809-.345.868-.156.388-.6,1.715-.755,2.238-.038.135-.086.3-.108.378a20.985,20.985,0,0,0-.534,2.373,5.35,5.35,0,0,0-.086,2.26,1.8,1.8,0,0,1,.027.777,4.406,4.406,0,0,0,1.241,3.759c.254.227.275.275.41.782s.3,1.17.4,1.51a14.059,14.059,0,0,0,1.408,3.382.852.852,0,0,1,.21.663,3.332,3.332,0,0,1-.059.609c-.243,1.09-.421,1.392-1.057,1.791-2.017,1.278-2.433,1.553-2.983,1.963-.28.21-.523.394-.539.41s-.146.124-.3.237a12.639,12.639,0,0,0-2.006,2.136,12.087,12.087,0,0,0-.987,1.888c-.032.1-.086.237-.108.3s-.07.216-.108.351-.086.3-.108.378a11.882,11.882,0,0,0-.378,2.524c.011,1.381.879,2.406,2.7,3.177.1.043.237.1.3.124a17.725,17.725,0,0,0,1.7.529c.8.189,1.176.27,1.537.329a58.682,58.682,0,0,0,12.54.6c.577-.027,1.17-.07,1.316-.1l.264-.038.259-.485a5.76,5.76,0,0,0,.264-.534,14.037,14.037,0,0,0-1.025-1.084c-.561-.566-1.025-1.046-1.025-1.073,0-.049.189-.027.8.07.183.032.475.081.647.113s.48.081.685.113a4.466,4.466,0,0,0,.615.07l.237.005.361-.7c.194-.388.485-.955.647-1.268s.3-.577.307-.588c.054-.07.129.129.178.485.032.216.081.545.108.723.065.432.162,1.073.2,1.4.032.248.054.275.227.334a1.281,1.281,0,0,0,.367.065,3.114,3.114,0,0,1,.4.054c.124.027.41.081.631.113,1.354.2,1.348.2,1.348.27a11.368,11.368,0,0,1-1.289.7c-.712.351-1.305.669-1.321.7-.108.173.356.108,1.936-.264.4-.1,1.462-.426,1.726-.539.388-.162.507-.216.7-.3a4.39,4.39,0,0,0,2.028-1.791,4.324,4.324,0,0,0,.092-2.789,9.965,9.965,0,0,0-1.521-3.856,12.672,12.672,0,0,0-2.837-2.789c-.5-.372-.814-.583-2.05-1.365-1.462-.928-1.613-1.068-1.807-1.645a5.353,5.353,0,0,1-.243-1.392.863.863,0,0,1,.2-.62,10.941,10.941,0,0,0,1.09-2.357,26.179,26.179,0,0,0,.723-2.535c.129-.507.156-.55.388-.75a4.274,4.274,0,0,0,.82-1.084,5.014,5.014,0,0,0,.437-2.681c-.038-.448-.032-.577.032-.712a4.58,4.58,0,0,0,.027-1.613,20.89,20.89,0,0,0-.647-3.112c-.022-.076-.07-.243-.108-.378-.151-.523-.593-1.85-.755-2.238-.027-.059-.156-.4-.3-.755s-.286-.723-.324-.809c-.243-.572-.248-.572-.566-1.294-.216-.485-.437-.955-.868-1.834-.421-.858-.426-.863-.787-1.127-.2-.146-.5-.361-.663-.485-.615-.448-.841-.615-1.084-.782l-.248-.178-.426.318c-.237.178-.529.388-.653.48s-.469.334-.771.556a2.494,2.494,0,0,1-.577.361,11.309,11.309,0,0,1,.4-1.354c.243-.723.442-1.365.442-1.424s-.108-.183-.307-.329c-.173-.119-.437-.307-.593-.415s-.534-.388-.847-.609a2.741,2.741,0,0,1-.572-.475c0-.049.329-.065,1.472-.065h1.478l.086-.259c.043-.14.1-.291.119-.34a4.09,4.09,0,0,0-.615-1.052c-.685-1.014-.987-1.451-1.1-1.586-.038-.043-.124-.167-.2-.27a6.1,6.1,0,0,0-.939-1.084A1.075,1.075,0,0,0,328.854-981.945Zm2.163,12.61c.032.2.081.539.189,1.273.032.21.081.507.108.647a2.417,2.417,0,0,1,.054.421c0,.351.049.372,1.052.534.21.032.512.081.674.108.351.054,1.079.167,1.176.178.2.027-.032.173-1.176.75-.7.351-1.284.658-1.305.68a4.027,4.027,0,0,0,.119,1.224,7.882,7.882,0,0,1,.216,1.726c-.016.011-.491-.437-1.057-1a12.143,12.143,0,0,0-1.09-1.019c-.043,0-.647.291-1.343.647a11.446,11.446,0,0,1-1.316.615c-.027-.011.005-.113.065-.221.253-.453,1.235-2.384,1.235-2.432,0-.027-.458-.523-1.019-1.095-.928-.955-1.009-1.046-.879-1.062a1.885,1.885,0,0,1,.453.038c.173.032.458.081.636.113l1.311.221c.237.038.388.043.421.011.054-.054.76-1.4,1.111-2.13a1.2,1.2,0,0,1,.27-.421C330.958-969.534,331-969.442,331.017-969.335Zm.092,8.268c1.634.162,2.6.291,3.63.491.119.022.351.065.512.1a9.98,9.98,0,0,1,2.238.658,2.635,2.635,0,0,1,.3,1.694,1.915,1.915,0,0,1-.858,1.537,1.823,1.823,0,0,0-.388.329,10.784,10.784,0,0,0-.383,1.316c-.1.415-.151.6-.334,1.241-.3,1.036-.378,1.267-.437,1.267a1.5,1.5,0,0,1-.307-.318,3.637,3.637,0,0,0-.512-.523c-.14-.119-.3-.253-.361-.3a5.276,5.276,0,0,0-1.273-.626c-.787-.237-.841-.237-3.047-.259a21.36,21.36,0,0,0-3.722.135c-.119.032-.286.07-.378.086a6.683,6.683,0,0,0-.7.3,4.737,4.737,0,0,0-1.586,1.262.9.9,0,0,1-.243.248,1.027,1.027,0,0,1-.189-.421c-.07-.226-.135-.453-.151-.5s-.049-.162-.076-.259-.07-.253-.1-.351c-.086-.286-.28-1.025-.329-1.224a6.913,6.913,0,0,0-.3-1.036,1.51,1.51,0,0,0-.4-.367,1.916,1.916,0,0,1-.863-1.564,2.5,2.5,0,0,1,.022-.868,3.629,3.629,0,0,1,.129-.572,3.356,3.356,0,0,1,1.116-.448c1.046-.286,1.413-.378,2.319-.561a30.57,30.57,0,0,1,3.1-.453A31.549,31.549,0,0,1,331.109-961.066Zm-.383,8.522c1.046.108,1.348.334,1.419,1.079.043.432-.022.577-.318.723-.2.1-.345.108-2.508.108s-2.3-.011-2.508-.108c-.3-.14-.361-.291-.318-.723.092-.933.518-1.111,2.7-1.127C329.728-952.593,330.418-952.571,330.726-952.544Zm-6.521,6.267c.124.3.663,1.365.879,1.742.318.566.372.658.464.793a.592.592,0,0,1,.1.173,3.591,3.591,0,0,0,.275.453,9.476,9.476,0,0,0,2.184,2.476,1.968,1.968,0,0,0,1.208.448,1.968,1.968,0,0,0,1.208-.448,9.475,9.475,0,0,0,2.184-2.476,3.589,3.589,0,0,0,.275-.453.592.592,0,0,1,.1-.173,21.934,21.934,0,0,0,1.138-2.1,4.771,4.771,0,0,1,.378-.69c.027-.016.076.022.1.092a3.951,3.951,0,0,0,.771.971c.129.1.345.264.491.361.248.167.254.178.254.453a3.06,3.06,0,0,1-.3,1.2c-.254.523-.68.879-2.244,1.9-.4.264-.782.518-.836.561a10.4,10.4,0,0,0-2.664,2.923c-.34.6-.41.728-.577,1.052a2.445,2.445,0,0,0-.178.41.122.122,0,0,1-.081.1c-.059.022-.1-.016-.14-.119-.059-.156-.34-.723-.529-1.052-.059-.108-.167-.291-.227-.4a9.283,9.283,0,0,0-1.224-1.618,11.856,11.856,0,0,0-1.435-1.294c-.054-.043-.431-.3-.836-.561-1.559-1.019-1.99-1.386-2.249-1.915a3.049,3.049,0,0,1-.291-1.192v-.28l.34-.227a4.013,4.013,0,0,0,1.009-1c.135-.264.227-.4.275-.4C324.064-946.557,324.14-946.428,324.2-946.277Zm-1.958,4.854c.194.307.62,1,.707,1.149.054.086.232.378.4.647s.324.523.351.566c.043.065.092.065.313.016.755-.183,1.71-.41,2.082-.507.647-.162.69-.146.4.167-.092.108-.307.351-.469.539s-.307.361-.324.378-.162.183-.324.378-.361.421-.442.512a.528.528,0,0,0-.151.227,3.411,3.411,0,0,0,.485.879c.96,1.553,1.019,1.656.987,1.694a2.855,2.855,0,0,1-.771-.275c-.4-.178-.523-.227-.809-.34-.307-.119-.442-.178-.874-.372-.227-.1-.421-.108-.421-.011a1.028,1.028,0,0,1-.151.194c-.081.086-.28.318-.442.512s-.307.361-.324.378-.162.183-.324.378-.378.437-.475.539l-.178.189.032-.539c.016-.3.054-.771.081-1.052s.065-.723.081-.976c.027-.442.022-.464-.1-.518-.2-.1-.485-.221-.793-.34-.291-.113-.361-.14-.863-.361-.135-.059-.394-.167-.577-.237-.361-.14-.431-.243-.189-.291.264-.059.626-.14.82-.189s.9-.216,1.4-.329.464-.081.529-.76c.14-1.467.173-1.877.173-2.114C322.09-941.568,322.134-941.6,322.247-941.423Z" fill="#707172"/>
  </g>
</svg>
