<svg xmlns="http://www.w3.org/2000/svg" width="56" height="56" viewBox="0 0 56 56">
  <g id="Group_13271" data-name="Group 13271" transform="translate(-347 -864)">
    <rect id="Rectangle_3363" data-name="Rectangle 3363" width="56" height="56" transform="translate(347 864)" fill="#fff"/>
    <g id="woman" transform="translate(283.224 865)">
      <path id="Path_22244" data-name="Path 22244" d="M116.21,54.883V59.3a.9.9,0,0,1-.9.9H82.46a.9.9,0,0,1-.9-.9V54.883a8.393,8.393,0,0,1,4.923-7.642,13.157,13.157,0,0,1-4.3-4.935,11.9,11.9,0,0,1,.814-11.764,11.571,11.571,0,0,0,1.942-6.417V19.25A11.25,11.25,0,0,1,96.185,8h5.4a11.25,11.25,0,0,1,11.25,11.25c0,5.162-.126,6.173.5,8.226.878,2.9,2.038,3.262,2.932,6.216a11.9,11.9,0,0,1-3.979,12.756l-1,.793a8.393,8.393,0,0,1,4.923,7.642Z" transform="translate(-7.109 -7.1)" fill="#ffdfba"/>
      <path id="Path_22245" data-name="Path 22245" d="M120.651,355.266v4.417a.9.9,0,0,1-.9.9H86.9a.9.9,0,0,1-.9-.9v-4.417a8.389,8.389,0,0,1,8.389-8.389,4.655,4.655,0,0,0,1.933-.417l.028.061,6.424,4.973a.9.9,0,0,0,1.1,0l6.424-4.973.028-.061a4.655,4.655,0,0,0,1.933.417A8.389,8.389,0,0,1,120.651,355.266Z" transform="translate(-11.55 -307.483)" fill="#ffaa64"/>
      <path id="Path_22246" data-name="Path 22246" d="M162.424,123.055a.9.9,0,0,1,.852.9v5.387a11.137,11.137,0,1,1-22.275,0v-5.309a.9.9,0,0,1,.977-.9,23.285,23.285,0,0,0,15.179-3.881.9.9,0,0,1,1.367.5A4.2,4.2,0,0,0,162.424,123.055Z" transform="translate(-60.362 -105.701)" fill="#ffebd2"/>
      <path id="Path_22247" data-name="Path 22247" d="M112.292,46.448l-1,.793a8.368,8.368,0,0,0-3.466-.747,4.654,4.654,0,0,1-4.661-4.651v-.768l-.017-.042A11.139,11.139,0,0,0,110.03,30.74V25.352a.9.9,0,0,0-.852-.9,4.2,4.2,0,0,1-3.9-3.3.9.9,0,0,0-1.367-.5,23.286,23.286,0,0,1-15.179,3.881.9.9,0,0,0-.977.9V30.74a11.139,11.139,0,0,0,6.879,10.294l-.017.042v.768a4.654,4.654,0,0,1-4.661,4.651,8.368,8.368,0,0,0-3.466.747l-1-.793A11.9,11.9,0,0,1,83,30.542a11.571,11.571,0,0,0,1.942-6.417V19.25A11.25,11.25,0,0,1,96.193,8h5.4a11.25,11.25,0,0,1,11.25,11.25v4.875a11.577,11.577,0,0,0,1.942,6.417A11.9,11.9,0,0,1,112.292,46.448Z" transform="translate(-7.117 -7.1)" fill="#42434d"/>
      <path id="Path_22248" data-name="Path 22248" d="M209.676,303.519a11.168,11.168,0,0,1-8.8,0,6.972,6.972,0,0,0,.127-1.847l.017-.042a11.16,11.16,0,0,0,8.516,0l.017.042A6.965,6.965,0,0,0,209.676,303.519Z" transform="translate(-113.498 -267.697)" fill="#ffd6a6"/>
      <path id="Path_22249" data-name="Path 22249" d="M106.671,9.211a1.173,1.173,0,0,1-.633,2.215q-.53-.05-1.074-.051h-5.4a11.25,11.25,0,0,0-11.25,11.25v1.369c0,.808-.562.782-.562,1.437,0,5.942.024,5.566-.063,5.823-.883,2.6-1.942,2.972-2.8,5.813a11.892,11.892,0,0,0-.444,4.688,1.174,1.174,0,0,1-2.259.551A11.9,11.9,0,0,1,83,30.542a11.571,11.571,0,0,0,1.942-6.417V19.25A11.25,11.25,0,0,1,96.188,8h5.4a11.2,11.2,0,0,1,5.082,1.211Z" transform="translate(-7.112 -7.1)" fill="#4d4e59"/>
      <path id="Path_22250" data-name="Path 22250" d="M150,168.607a1.718,1.718,0,0,1-1.509,3.057A11.067,11.067,0,0,1,141,161.146v-5.309a.9.9,0,0,1,.978-.9c.431.039.9.07,1.415.086a1.715,1.715,0,0,1,1.657,1.717v2.6A11.1,11.1,0,0,0,150,168.607Z" transform="translate(-60.363 -137.506)" fill="#fff3e4"/>
      <path id="Path_22251" data-name="Path 22251" d="M98.207,347.957a.716.716,0,0,1-.423,1.283,8.388,8.388,0,0,0-8.407,8.389v2.954H86.9a.9.9,0,0,1-.9-.9v-4.417a8.389,8.389,0,0,1,8.389-8.389,4.655,4.655,0,0,0,1.933-.417l.028.061Z" transform="translate(-11.551 -307.483)" fill="#ffbd7b"/>
      <path id="Path_22252" data-name="Path 22252" d="M283.306,347.957a.716.716,0,0,0,.423,1.283,8.388,8.388,0,0,1,8.407,8.389v2.954h2.475a.9.9,0,0,0,.9-.9v-4.417a8.389,8.389,0,0,0-8.389-8.389,4.655,4.655,0,0,1-1.933-.417l-.028.061Z" transform="translate(-186.411 -307.483)" fill="#faa157"/>
      <path id="Path_22253" data-name="Path 22253" d="M110,47.784V53.1a.9.9,0,1,1-1.8,0V47.784a7.485,7.485,0,0,0-7.489-7.489,5.526,5.526,0,0,1-4.754-2.669.9.9,0,1,1,1.537-.936,3.739,3.739,0,0,0,3.217,1.806A9.284,9.284,0,0,1,110,47.784ZM94.986,40.814,91.776,43.3l-5.457-4.225a5.514,5.514,0,0,0,2.063-3.886,12.039,12.039,0,0,0,15.432-11.55c0-.07,0-6.3,0-6.371a.9.9,0,0,0-.9-.843,3.7,3.7,0,0,1-2.349-.434,4.1,4.1,0,0,1-1.7-3.273.9.9,0,0,0-1.42-.74,29,29,0,0,1-12.761,5.064.9.9,0,0,0,.124,1.791,29.612,29.612,0,0,0,6.377-1.562,30.858,30.858,0,0,0,6.105-3.019,5.083,5.083,0,0,0,4.725,4v5.388a10.237,10.237,0,1,1-20.475,0V17.325a.9.9,0,0,0-1.8,0v6.314A12.053,12.053,0,0,0,86.6,34.506v.237a3.752,3.752,0,0,1-3.761,3.751,9.285,9.285,0,0,0-3.322.612l-.581-.462a10.993,10.993,0,0,1-2.3-14.7,12.434,12.434,0,0,0,2.092-6.914V12.15A10.362,10.362,0,0,1,89.076,1.8h5.4a10.362,10.362,0,0,1,10.35,10.35v4.875a12.37,12.37,0,0,0,2.082,6.9,10.994,10.994,0,0,1-.088,12.355A.9.9,0,1,0,108.3,37.3a12.793,12.793,0,0,0,.1-14.377,10.576,10.576,0,0,1-1.779-5.9V12.15A12.164,12.164,0,0,0,94.476,0h-5.4a12.164,12.164,0,0,0-12.15,12.15v4.875a10.639,10.639,0,0,1-1.791,5.917A12.789,12.789,0,0,0,77.76,40.005a9.264,9.264,0,0,0-4.209,7.778V53.1a.9.9,0,1,0,1.8,0V47.784a7.485,7.485,0,0,1,7.489-7.489,5.58,5.58,0,0,0,1.751-.281l6.634,5.136a.9.9,0,0,0,1.1,0l3.761-2.911a.9.9,0,0,0-1.1-1.423Z"/>
    </g>
  </g>
</svg>
