<svg xmlns="http://www.w3.org/2000/svg" width="56" height="56" viewBox="0 0 56 56">
  <g id="Group_11888" data-name="Group 11888" transform="translate(-0.048 -0.204)">
    <rect id="Rectangle_3363" data-name="Rectangle 3363" width="56" height="56" transform="translate(0.048 0.204)" fill="#fff"/>
    <g id="man" transform="translate(11.63 3.33)">
      <path id="Path_21160" data-name="Path 21160" d="M110.865,44.437v4.186a.853.853,0,0,1-.853.853H78.881a.853.853,0,0,1-.853-.853V44.437a7.951,7.951,0,0,1,7.952-7.95,4.415,4.415,0,0,0,3.706-2.011,5.011,5.011,0,0,0,.709-3.125l.016-.039a10.556,10.556,0,0,1-6.52-9.755v-.334a2.63,2.63,0,0,1-2.665-2.616V14.175c-.034-1.543.036-6.983,3.966-10.771C89.762-1,97-.64,102.249,1.716a.214.214,0,0,1-.007.392l-1.368.563a.213.213,0,0,0,.059.409l.664.071a10.758,10.758,0,0,1,8.03,5.043.066.066,0,0,1-.011.078,6.449,6.449,0,0,0-1.842,4.515v5.663A2.771,2.771,0,0,1,105,21.222v.334a10.556,10.556,0,0,1-6.52,9.755l.016.039a5.009,5.009,0,0,0,.709,3.125,4.415,4.415,0,0,0,3.706,2.011,7.951,7.951,0,0,1,7.952,7.95Z" transform="translate(-78.028 0)" fill="#ffd6a6"/>
      <path id="Path_21161" data-name="Path 21161" d="M136.392,8.2a.065.065,0,0,1-.011.078,6.453,6.453,0,0,0-1.842,4.515v5.663a2.771,2.771,0,0,1-2.772,2.771c0-3.226,0-4.912,0-5.819a.852.852,0,0,0-1.1-.815,11.454,11.454,0,0,1-5.831.343c-3.708-.806-4.758-2.259-7.783-2.985a5.192,5.192,0,0,0-6.424,5.09c.006,1.089.025,2.449.027,4.186a2.63,2.63,0,0,1-2.665-2.616V14.176c-.034-1.543.036-6.983,3.966-10.771C116.528-1,123.77-.64,129.014,1.717a.214.214,0,0,1-.007.392l-1.368.563a.213.213,0,0,0,.058.409l.664.071A10.756,10.756,0,0,1,136.392,8.2Z" transform="translate(-104.794 0)" fill="#42434d"/>
      <path id="Path_21162" data-name="Path 21162" d="M152.814,113.443a.851.851,0,0,1,1.1.815c0,.938,0,2.709,0,6.153a10.555,10.555,0,1,1-21.11,0c0-1.946-.02-3.328-.027-4.519a5.192,5.192,0,0,1,6.424-5.09c3.025.726,4.075,2.179,7.783,2.985A11.455,11.455,0,0,0,152.814,113.443Z" transform="translate(-126.939 -98.854)" fill="#ffdfba"/>
      <path id="Path_21163" data-name="Path 21163" d="M110.865,333.327v4.186a.853.853,0,0,1-.853.853H78.881a.853.853,0,0,1-.853-.853v-4.186a7.952,7.952,0,0,1,7.952-7.95,4.414,4.414,0,0,0,3.706-2.011,7.318,7.318,0,0,0,9.521,0,4.414,4.414,0,0,0,3.706,2.011A7.952,7.952,0,0,1,110.865,333.327Z" transform="translate(-78.028 -288.89)" fill="#42434d"/>
      <path id="Path_21164" data-name="Path 21164" d="M284.44,432.762h-2.559a.853.853,0,0,1,0-1.706h2.559a.853.853,0,0,1,0,1.706Z" transform="translate(-259.385 -385.099)" fill="#fff"/>
      <path id="Path_21165" data-name="Path 21165" d="M90.276,327.952a4.336,4.336,0,0,1-1.27.2,7.973,7.973,0,0,0-7.993,7.923v.8a1.493,1.493,0,0,1-1.493,1.493h-.64a.853.853,0,0,1-.853-.853v-4.186a7.952,7.952,0,0,1,7.952-7.95,4.414,4.414,0,0,0,3.706-2.011,7.379,7.379,0,0,0,1.014.727,2.13,2.13,0,0,1-.424,3.859Z" transform="translate(-78.028 -288.89)" fill="#4d4e59"/>
      <path id="Path_21166" data-name="Path 21166" d="M258.83,327.952a4.336,4.336,0,0,0,1.27.2,7.973,7.973,0,0,1,7.992,7.923v.8a1.493,1.493,0,0,0,1.493,1.493h.64a.853.853,0,0,0,.853-.853v-4.186a7.952,7.952,0,0,0-7.952-7.95,4.414,4.414,0,0,1-3.706-2.011,7.376,7.376,0,0,1-1.014.727,2.13,2.13,0,0,0,.424,3.859Z" transform="translate(-238.241 -288.89)" fill="#2c2c33"/>
      <path id="Path_21167" data-name="Path 21167" d="M201.242,295.476a10.584,10.584,0,0,1-8.344,0,6.607,6.607,0,0,0,.12-1.751l.016-.039a10.576,10.576,0,0,0,8.071,0l.016.039A6.605,6.605,0,0,0,201.242,295.476Z" transform="translate(-180.651 -262.375)" fill="#f7c388"/>
      <path id="Path_21168" data-name="Path 21168" d="M129.007,2.108c-1.005.413-1.228.559-1.689.483C118.858,1.2,112.2,5.622,111.285,14.266a1.3,1.3,0,0,1-.122.438c-.649,1.321-.533,2.3-.52,3.923a1.326,1.326,0,0,1-2.648.112c-.005-.107,0,.174,0-4.563-.034-1.543.036-6.983,3.966-10.771,4.57-4.4,11.811-4.044,17.056-1.688a.214.214,0,0,1-.007.392Z" transform="translate(-104.793 0)" fill="#4d4e59"/>
      <path id="Path_21169" data-name="Path 21169" d="M140.971,142.083a1.685,1.685,0,0,1-1.533,2.985,10.557,10.557,0,0,1-6.633-9.8c0-1.948-.02-3.324-.027-4.519a5.194,5.194,0,0,1,.853-2.894,1.282,1.282,0,0,1,2.345.762c.007,1.2.027,2.569.027,4.519A10.479,10.479,0,0,0,140.971,142.083Z" transform="translate(-126.941 -113.71)" fill="#ffebd2"/>
    </g>
  </g>
</svg>
