<svg xmlns="http://www.w3.org/2000/svg" width="52" height="52.043" viewBox="0 0 52 52.043">
  <g id="layer" transform="translate(1 0.71)">
    <path id="Path_20900" data-name="Path 20900" d="M49.188,265.938l-6.405-3.25L28.7,269.835a8.185,8.185,0,0,1-7.4,0L7.217,262.688l-6.405,3.25a1.506,1.506,0,0,0,0,2.673l21.794,11.06a5.309,5.309,0,0,0,4.788,0l21.794-11.061a1.506,1.506,0,0,0,0-2.673Zm0,0" transform="translate(0 -242.064)" fill="none" stroke="#707172" stroke-width="2"/>
    <path id="Path_20901" data-name="Path 20901" d="M49.188,423.083l-6.405-3.251L28.7,426.979a8.19,8.19,0,0,1-7.4,0L7.217,419.832.812,423.083a1.506,1.506,0,0,0,0,2.673l21.794,11.06a5.306,5.306,0,0,0,4.788,0l21.794-11.06a1.506,1.506,0,0,0,0-2.673Zm0,0" transform="translate(0 -387.054)" fill="none" stroke="#707172" stroke-width="2"/>
    <path id="Path_20902" data-name="Path 20902" d="M.812,14.638,22.606,25.7a5.306,5.306,0,0,0,4.788,0L49.188,14.638a1.506,1.506,0,0,0,0-2.673L27.394.9a5.31,5.31,0,0,0-4.788,0L.812,11.964a1.506,1.506,0,0,0,0,2.673Zm0,0" fill="none" stroke="#707172" stroke-width="2"/>
  </g>
</svg>
